<?xml version="1.0" standalone="no"?>
<!DOCTYPE svg PUBLIC "-//W3C//DTD SVG 20010904//EN"
 "http://www.w3.org/TR/2001/REC-SVG-20010904/DTD/svg10.dtd">
<svg version="1.0" xmlns="http://www.w3.org/2000/svg"
 width="221.000000pt" height="221.000000pt" viewBox="0 0 221.000000 221.000000"
 preserveAspectRatio="xMidYMid meet">
<metadata>
Created by potrace 1.14, written by Peter Selinger 2001-2017
</metadata>
<g transform="translate(0.000000,221.000000) scale(0.100000,-0.100000)"
fill="#000000" stroke="none">
<path d="M801 1756 c-9 -11 -7 -19 11 -38 23 -23 23 -25 23 -258 0 -231 -1
-236 -23 -258 l-23 -23 22 -18 c21 -17 23 -26 24 -154 0 -87 -3 -138 -10 -140
-20 -8 -89 3 -111 18 -46 30 -58 150 -18 180 16 11 16 15 5 29 -17 20 -40 20
-67 2 -17 -12 -22 -12 -39 0 -24 18 -36 18 -60 0 -19 -14 -19 -15 4 -33 18
-15 23 -31 27 -83 8 -133 75 -206 200 -218 l69 -7 -1 -69 c0 -59 -3 -71 -23
-87 -19 -16 -21 -22 -11 -34 17 -20 46 -19 69 4 18 18 18 18 30 0 10 -18 28
-19 244 -19 l233 0 -1 101 c0 55 2 102 5 104 3 2 28 4 55 6 91 5 150 40 187
113 16 31 21 62 23 145 2 118 9 151 32 151 19 0 12 22 -13 35 -18 9 -19 21
-19 149 1 130 2 140 23 156 20 17 20 18 3 34 -22 20 -41 20 -66 2 -16 -11 -21
-11 -33 0 -17 18 -33 18 -58 0 -19 -14 -19 -15 4 -36 22 -21 23 -23 22 -292
-1 -285 -5 -314 -48 -337 -30 -16 -100 -21 -110 -8 -5 7 -8 48 -7 91 1 70 4
81 23 94 21 14 22 16 6 33 -21 23 -42 24 -71 4 -12 -8 -23 -11 -25 -6 -6 17
-44 21 -64 7 -19 -14 -19 -15 4 -36 21 -20 23 -29 20 -108 l-3 -87 -160 0
-160 0 -3 418 c-2 406 -2 417 18 437 24 24 25 36 4 44 -26 10 -46 7 -64 -9
-15 -14 -18 -14 -30 0 -16 19 -54 20 -69 1z m467 -1048 l-3 -52 -160 -1 -160
0 -3 53 -3 52 166 0 166 0 -3 -52z"/>
</g>
</svg>
